# xmcd
#
# Track frame offsets:
#	150
#	14380
#	27635
#	41322
#	54082
#	67115
#	79732
#	91817
#	104092
#	118372
#	130730
#	144272
#	158992
#	172340
#	185757
#	199042
#	212522
#	226237
#	239537
#	253042
#	266380
#	279537
#	292050
#
# Disc length: 4055 seconds
#
# Revision: 3
# Processed by: cddbd v1.4b41PL2 Copyright (c) Steve Scherf et al.
# Submitted via: CDmax 1.7.6
#
DISCID=580fd517
DTITLE=Jimmie Davis - Noboy's Darlin' But Mine, Volume #4
DYEAR=1900
DGENRE=
TTITLE0=It's Been Years (Since I've Seen My Mother)
TTITLE1=Beautiful Mary
TTITLE2=My Brown-Eyed Texas Rose
TTITLE3=Moonlight and Skies
TTITLE4=Jelly Roll Blues
TTITLE5=Graveyard Blues
TTITLE6=Are You Tired of Me, Darling?
TTITLE7=Red River Blues
TTITLE8=Answer to 'Nobody's Darling But Mine'
TTITLE9=In My Cabin Tonight
TTITLE10=When a Boy from the Mountains (Weds a Girl from the Valley)
TTITLE11=Come On Over to My House (Ain't Nobody Here But Me)
TTITLE12=Don't Say Goodbye If You Love Me
TTITLE13=I Wish I Had Never Seen the Sunshine
TTITLE14=High Geared Mama
TTITLE15=Bed Bug Blues
TTITLE16=I Ain't Gonna Let Ol' Satan Turn Me 'Round
TTITLE17='Twill Be Sweet When We Meet
TTITLE18=My Blue Bonnet Girl
TTITLE19=Ridin' Down the Arizona Trail
TTITLE20=Mama's Getting Hot and Papa's Getting Cold
TTITLE21=When It's Peach Pickin' Time in Georgia
TTITLE22=Come On Over to My House (Ain't Nobody Here But Me)
EXTD=
EXTT0=
EXTT1=
EXTT2=
EXTT3=
EXTT4=
EXTT5=
EXTT6=
EXTT7=
EXTT8=
EXTT9=
EXTT10=
EXTT11=
EXTT12=
EXTT13=
EXTT14=
EXTT15=
EXTT16=
EXTT17=
EXTT18=
EXTT19=
EXTT20=
EXTT21=
EXTT22=
PLAYORDER=
